<svg width="122" height="25" viewBox="0 0 122 25" fill="none" xmlns="http://www.w3.org/2000/svg">
<path d="M0.5 24H0V24.5H0.5V24ZM14.2273 11.8636H13.7273V12.345L14.2083 12.3633L14.2273 11.8636ZM14.2273 11.6364L14.13 11.1459L13.7273 11.2258V11.6364H14.2273ZM0.5 0.727272V0.227272H0V0.727272H0.5ZM6.81818 18.9545H6.31818V19.4545H6.81818V18.9545ZM6.81818 14.0455V13.5455H6.31818V14.0455H6.81818ZM6.81818 10.1364H6.31818V10.6364H6.81818V10.1364ZM6.81818 5.68182V5.18182H6.31818V5.68182H6.81818ZM0.5 24.5H11.4545V23.5H0.5V24.5ZM11.4545 24.5C14.0708 24.5 16.2377 23.7854 17.7604 22.5259C19.2905 21.2603 20.1364 19.4704 20.1364 17.4091H19.1364C19.1364 19.1773 18.4197 20.6829 17.1231 21.7553C15.8191 22.8339 13.8951 23.5 11.4545 23.5V24.5ZM20.1364 17.4091C20.1364 13.8309 17.4774 11.4869 14.2463 11.364L14.2083 12.3633C16.9544 12.4677 19.1364 14.4191 19.1364 17.4091H20.1364ZM14.7273 11.8636V11.6364H13.7273V11.8636H14.7273ZM14.3245 12.1268C17.2169 11.5532 19.2273 9.38612 19.2273 6.54545H18.2273C18.2273 8.84115 16.624 10.6513 14.13 11.1459L14.3245 12.1268ZM19.2273 6.54545C19.2273 4.62412 18.4553 3.01608 16.9505 1.90463C15.4649 0.807422 13.312 0.227272 10.5909 0.227272V1.22727C13.188 1.22727 15.1033 1.78349 16.3564 2.70901C17.5902 3.62028 18.2273 4.92134 18.2273 6.54545H19.2273ZM10.5909 0.227272H0.5V1.22727H10.5909V0.227272ZM0 0.727272V24H1V0.727272H0ZM7.31818 18.9545V14.0455H6.31818V18.9545H7.31818ZM6.81818 14.5455H9.86364V13.5455H6.81818V14.5455ZM9.86364 14.5455C10.7526 14.5455 11.3995 14.7566 11.8144 15.093C12.2145 15.4173 12.4545 15.9025 12.4545 16.5909H13.4545C13.4545 15.643 13.1093 14.8554 12.4441 14.3161C11.7937 13.7889 10.8952 13.5455 9.86364 13.5455V14.5455ZM12.4545 16.5909C12.4545 17.2445 12.2405 17.6723 11.861 17.9561C11.455 18.2598 10.7858 18.4545 9.77273 18.4545V19.4545C10.8846 19.4545 11.8063 19.2459 12.46 18.7569C13.1402 18.2482 13.4545 17.4941 13.4545 16.5909H12.4545ZM9.77273 18.4545H6.81818V19.4545H9.77273V18.4545ZM7.31818 10.1364V5.68182H6.31818V10.1364H7.31818ZM6.81818 6.18182H9.5V5.18182H6.81818V6.18182ZM9.5 6.18182C10.206 6.18182 10.7697 6.36148 11.1447 6.6532C11.5057 6.93394 11.7273 7.34358 11.7273 7.90909H12.7273C12.7273 7.04278 12.3693 6.33878 11.7587 5.86385C11.1622 5.39989 10.3622 5.18182 9.5 5.18182V6.18182ZM11.7273 7.90909C11.7273 8.47372 11.5066 8.88126 11.1378 9.16158C10.7529 9.45408 10.1661 9.63636 9.40909 9.63636V10.6364C10.3112 10.6364 11.1334 10.4209 11.7429 9.95774C12.3684 9.48238 12.7273 8.77628 12.7273 7.90909H11.7273ZM9.40909 9.63636H6.81818V10.6364H9.40909V9.63636ZM21.875 0.727272V0.227272H21.375V0.727272H21.875ZM21.875 24H21.375V24.5H21.875V24ZM28.1932 18.6364H27.6932V19.1364H28.1932V18.6364ZM28.1932 6.09091V5.59091H27.6932V6.09091H28.1932ZM30.8295 24.5C34.4782 24.5 37.5129 23.3754 39.6366 21.2636C41.7609 19.1514 42.9205 16.1045 42.9205 12.3636H41.9205C41.9205 15.8955 40.83 18.6668 38.9315 20.5545C37.0326 22.4428 34.2718 23.5 30.8295 23.5V24.5ZM42.9205 12.3636C42.9205 8.62277 41.7609 5.57521 39.6243 3.46264C37.4885 1.35089 34.4311 0.227272 30.7386 0.227272V1.22727C34.228 1.22727 37.0115 2.28548 38.9212 4.17373C40.8301 6.06115 41.9205 8.83177 41.9205 12.3636H42.9205ZM30.7386 0.227272H21.875V1.22727H30.7386V0.227272ZM21.375 0.727272V24H22.375V0.727272H21.375ZM21.875 24.5H30.8295V23.5H21.875V24.5ZM28.6932 18.6364V6.09091H27.6932V18.6364H28.6932ZM28.1932 6.59091H30.4205V5.59091H28.1932V6.59091ZM30.4205 6.59091C32.1906 6.59091 33.4335 6.9369 34.2477 7.75591C35.0644 8.57747 35.5568 9.9829 35.5568 12.3636H36.5568C36.5568 9.88074 36.0493 8.1498 34.9569 7.05091C33.8619 5.94946 32.2867 5.59091 30.4205 5.59091V6.59091ZM35.5568 12.3636C35.5568 14.7439 35.0646 16.1529 34.2662 16.9757C33.4731 17.7929 32.2755 18.1364 30.6023 18.1364V19.1364C32.3835 19.1364 33.9133 18.7752 34.9838 17.6721C36.0491 16.5743 36.5568 14.847 36.5568 12.3636H35.5568ZM30.6023 18.1364H28.1932V19.1364H30.6023V18.1364ZM51.6619 0.727272H52.1619V0.227272H51.6619V0.727272ZM45.3438 0.727272V0.227272H44.8438V0.727272H45.3438ZM45.3438 24H44.8438V24.5H45.3438V24ZM51.6619 24V24.5H52.1619V24H51.6619ZM51.6619 0.227272H45.3438V1.22727H51.6619V0.227272ZM44.8438 0.727272V24H45.8438V0.727272H44.8438ZM45.3438 24.5H51.6619V23.5H45.3438V24.5ZM52.1619 24V0.727272H51.1619V24H52.1619ZM60.8494 20.3636H60.3494V20.8636H60.8494V20.3636ZM72.1676 20.3636H72.6676V19.8636H72.1676V20.3636ZM72.1676 24H71.6676V24.5H72.1676V24ZM78.2131 24V24.5H78.7131V24H78.2131ZM78.2131 20.3636V19.8636H77.7131V20.3636H78.2131ZM80.8949 20.3636V20.8636H81.3949V20.3636H80.8949ZM80.8949 15.4545H81.3949V14.9545H80.8949V15.4545ZM78.2131 15.4545H77.7131V15.9545H78.2131V15.4545ZM78.2131 0.727272H78.7131V0.227272H78.2131V0.727272ZM70.2131 0.727272V0.227272H69.9385L69.7911 0.459003L70.2131 0.727272ZM60.8494 15.4545L60.4275 15.1863L60.3494 15.3091V15.4545H60.8494ZM72.304 15.4545V15.9545H72.804V15.4545H72.304ZM67.0767 15.4545H66.5767V15.9545H67.0767V15.4545ZM67.0767 15.2727L66.6538 15.006L66.5767 15.1282V15.2727H67.0767ZM72.1222 7.27273V6.77273H71.8464L71.6992 7.006L72.1222 7.27273ZM72.304 7.27273H72.804V6.77273H72.304V7.27273ZM60.8494 20.8636H72.1676V19.8636H60.8494V20.8636ZM71.6676 20.3636V24H72.6676V20.3636H71.6676ZM72.1676 24.5H78.2131V23.5H72.1676V24.5ZM78.7131 24V20.3636H77.7131V24H78.7131ZM78.2131 20.8636H80.8949V19.8636H78.2131V20.8636ZM81.3949 20.3636V15.4545H80.3949V20.3636H81.3949ZM80.8949 14.9545H78.2131V15.9545H80.8949V14.9545ZM78.7131 15.4545V0.727272H77.7131V15.4545H78.7131ZM78.2131 0.227272H70.2131V1.22727H78.2131V0.227272ZM69.7911 0.459003L60.4275 15.1863L61.2714 15.7228L70.635 0.995541L69.7911 0.459003ZM60.3494 15.4545V20.3636H61.3494V15.4545H60.3494ZM72.304 14.9545H67.0767V15.9545H72.304V14.9545ZM67.5767 15.4545V15.2727H66.5767V15.4545H67.5767ZM67.4996 15.5395L72.5451 7.53945L71.6992 7.006L66.6538 15.006L67.4996 15.5395ZM72.1222 7.77273H72.304V6.77273H72.1222V7.77273ZM71.804 7.27273V15.4545H72.804V7.27273H71.804ZM84.5909 24L84.1446 23.7746L83.7783 24.5H84.5909V24ZM91.0909 24V24.5H91.3989L91.5375 24.2249L91.0909 24ZM100.273 5.77273L100.719 5.99767L100.773 5.89155V5.77273H100.273ZM100.273 0.727272H100.773V0.227272H100.273V0.727272ZM83 0.727272V0.227272H82.5V0.727272H83ZM83 5.77273H82.5V6.27273H83V5.77273ZM93.7273 5.77273H94.2273V5.27273H93.7273V5.77273ZM93.7273 5.90909L94.1736 6.13449L94.2273 6.02818V5.90909H93.7273ZM84.5909 24.5H91.0909V23.5H84.5909V24.5ZM91.5375 24.2249L100.719 5.99767L99.8262 5.54778L90.6444 23.7751L91.5375 24.2249ZM100.773 5.77273V0.727272H99.7727V5.77273H100.773ZM100.273 0.227272H83V1.22727H100.273V0.227272ZM82.5 0.727272V5.77273H83.5V0.727272H82.5ZM83 6.27273H93.7273V5.27273H83V6.27273ZM93.2273 5.77273V5.90909H94.2273V5.77273H93.2273ZM93.281 5.68369L84.1446 23.7746L85.0372 24.2254L94.1736 6.13449L93.281 5.68369ZM121.446 16L120.946 15.9987V16.0012L121.446 16ZM109.219 10.9091V11.4091H109.523L109.663 11.1384L109.219 10.9091ZM109.082 10.9091L108.584 10.865L108.536 11.4091H109.082V10.9091ZM109.537 5.77273V5.27273H109.079L109.039 5.72865L109.537 5.77273ZM119.991 5.77273V6.27273H120.491V5.77273H119.991ZM119.991 0.727272H120.491V0.227272H119.991V0.727272ZM104.355 0.727272V0.227272H103.889L103.856 0.6919L104.355 0.727272ZM103.446 13.5455L102.947 13.5101L102.916 13.9508L103.35 14.0361L103.446 13.5455ZM108.991 14.6364L108.895 15.127L109.278 15.2023L109.444 14.849L108.991 14.6364ZM115.355 16.1818L114.855 16.179L114.855 16.1846L115.355 16.1818ZM108.991 16.9091L109.491 16.895L109.478 16.4091H108.991V16.9091ZM102.855 16.9091V16.4091H102.351L102.355 16.913L102.855 16.9091ZM112.082 24.8182C115.018 24.8182 117.488 23.9259 119.229 22.3589C120.975 20.7882 121.952 18.5703 121.946 15.9988L120.946 16.0012C120.951 18.3047 120.082 20.2459 118.56 21.6156C117.034 22.9889 114.817 23.8182 112.082 23.8182V24.8182ZM121.946 16.0013C121.958 11.3189 118.658 7.95455 114.219 7.95455V8.95455C118.075 8.95455 120.957 11.8402 120.946 15.9987L121.946 16.0013ZM114.219 7.95455C111.733 7.95455 109.614 9.05368 108.774 10.6798L109.663 11.1384C110.278 9.94632 111.977 8.95455 114.219 8.95455V7.95455ZM109.219 10.4091H109.082V11.4091H109.219V10.4091ZM109.58 10.9532L110.035 5.8168L109.039 5.72865L108.584 10.865L109.58 10.9532ZM109.537 6.27273H119.991V5.27273H109.537V6.27273ZM120.491 5.77273V0.727272H119.491V5.77273H120.491ZM119.991 0.227272H104.355V1.22727H119.991V0.227272ZM103.856 0.6919L102.947 13.5101L103.945 13.5808L104.854 0.762644L103.856 0.6919ZM103.35 14.0361L108.895 15.127L109.088 14.1458L103.543 13.0549L103.35 14.0361ZM109.444 14.849C109.883 13.9156 110.903 13.3182 112.082 13.3182V12.3182C110.58 12.3182 109.168 13.0844 108.539 14.4237L109.444 14.849ZM112.082 13.3182C112.931 13.3182 113.618 13.608 114.091 14.0882C114.564 14.5683 114.86 15.276 114.855 16.179L115.855 16.1846C115.861 15.0535 115.487 14.0794 114.804 13.3863C114.121 12.6932 113.166 12.3182 112.082 12.3182V13.3182ZM114.855 16.1846C114.86 17.0876 114.564 17.7953 114.091 18.2755C113.618 18.7557 112.931 19.0455 112.082 19.0455V20.0455C113.166 20.0455 114.121 19.6705 114.804 18.9774C115.487 18.2842 115.861 17.3101 115.855 16.179L114.855 16.1846ZM112.082 19.0455C110.6 19.0455 109.527 18.1627 109.491 16.895L108.492 16.9232C108.547 18.8827 110.224 20.0455 112.082 20.0455V19.0455ZM108.991 16.4091H102.855V17.4091H108.991V16.4091ZM102.355 16.913C102.392 21.6219 106.548 24.8182 112.082 24.8182V23.8182C106.889 23.8182 103.386 20.8781 103.355 16.9052L102.355 16.913Z" fill="black"/>
</svg>
