<?xml version="1.0" standalone="no"?>
<!DOCTYPE svg PUBLIC "-//W3C//DTD SVG 20010904//EN"
 "http://www.w3.org/TR/2001/REC-SVG-20010904/DTD/svg10.dtd">
<svg version="1.0" xmlns="http://www.w3.org/2000/svg"
 width="832.000000pt" height="832.000000pt" viewBox="0 0 832.000000 832.000000"
 preserveAspectRatio="xMidYMid meet">
<metadata>
Created by potrace 1.11, written by Peter Selinger 2001-2013
</metadata>
<g transform="translate(0.000000,832.000000) scale(0.100000,-0.100000)"
fill="#000000" stroke="none">
<path d="M1280 7201 l0 -1119 34 0 c19 0 39 -2 43 -5 5 -3 15 -2 23 3 7 4 23
5 35 0 12 -5 28 -5 35 0 7 5 23 5 35 0 12 -5 28 -5 35 0 7 4 24 5 39 1 14 -5
38 -4 53 0 16 4 30 3 33 -1 3 -5 18 -5 34 0 15 4 34 4 41 0 7 -5 23 -5 34 0
11 4 33 4 47 0 15 -4 32 -4 39 0 7 4 24 5 39 1 14 -4 37 -5 51 -1 14 4 37 3
51 -1 15 -4 32 -3 39 1 7 5 23 5 35 0 12 -5 28 -5 35 0 7 5 23 5 35 0 12 -5
28 -5 35 0 7 4 24 5 39 1 14 -5 38 -4 53 0 16 4 30 3 33 -1 3 -5 18 -5 34 0
15 4 34 4 41 0 7 -5 23 -5 34 0 11 4 33 4 48 -1 15 -4 30 -4 32 0 3 3 23 5 46
3 23 -2 39 -6 36 -9 -3 -3 -1 -15 4 -27 4 -13 4 -29 0 -36 -5 -8 -5 -21 0 -30
5 -9 5 -22 0 -30 -5 -8 -5 -21 0 -30 5 -9 5 -22 0 -30 -5 -8 -5 -21 0 -30 5
-9 5 -22 0 -30 -5 -8 -5 -21 0 -30 5 -9 5 -22 0 -30 -5 -8 -5 -21 0 -30 5 -9
5 -22 0 -30 -4 -7 -4 -24 0 -36 6 -14 5 -26 0 -29 -6 -3 -6 -15 0 -30 6 -15 6
-27 0 -30 -6 -3 -6 -15 0 -30 6 -15 6 -27 0 -30 -6 -3 -6 -15 0 -29 5 -13 6
-27 3 -30 -8 -8 -9 -76 -1 -76 4 0 3 -13 -2 -30 -5 -17 -5 -30 0 -30 5 0 5
-13 0 -30 -5 -17 -5 -30 0 -30 5 0 5 -13 0 -30 -5 -17 -5 -30 0 -30 5 0 5 -13
0 -30 -5 -17 -5 -30 0 -30 5 0 5 -13 0 -30 -5 -17 -5 -30 0 -30 5 0 5 -13 0
-30 -5 -17 -5 -30 0 -30 5 0 5 -13 0 -30 -5 -17 -5 -30 0 -30 5 0 5 -13 0 -30
-5 -17 -5 -30 0 -30 5 0 5 -13 0 -30 -5 -17 -5 -30 0 -30 5 0 5 -13 0 -30 -5
-17 -5 -30 0 -30 5 0 5 -13 0 -30 -5 -17 -5 -30 0 -30 5 0 5 -13 0 -30 -5 -17
-5 -30 0 -30 5 0 5 -13 0 -30 -5 -17 -5 -30 0 -30 5 0 5 -13 0 -30 -5 -17 -5
-30 0 -30 5 0 5 -13 0 -30 -5 -17 -5 -30 0 -30 5 0 5 -13 0 -30 -5 -17 -5 -30
0 -30 5 0 5 -13 0 -30 -5 -17 -5 -30 0 -30 5 0 5 -13 0 -30 -5 -17 -5 -30 0
-30 5 0 5 -13 0 -30 -5 -17 -5 -30 0 -30 5 0 5 -13 0 -30 -5 -17 -5 -30 0 -30
5 0 5 -13 0 -30 -5 -17 -5 -30 0 -30 5 0 5 -13 0 -30 -5 -17 -5 -30 0 -30 5 0
5 -13 0 -30 -5 -17 -5 -30 0 -30 5 0 5 -13 0 -30 -5 -17 -5 -30 0 -30 5 0 5
-13 0 -30 -5 -17 -5 -30 0 -30 5 0 5 -13 0 -30 -5 -17 -5 -30 0 -30 5 0 5 -13
0 -30 -5 -17 -5 -30 0 -30 5 0 5 -13 0 -30 -5 -17 -5 -30 0 -30 5 0 5 -13 0
-30 -5 -17 -5 -30 0 -30 5 0 5 -13 0 -30 -5 -17 -5 -30 0 -30 5 0 5 -13 0 -30
-5 -17 -5 -30 0 -30 5 0 5 -13 0 -30 -5 -17 -5 -30 0 -30 5 0 5 -13 0 -30 -5
-16 -5 -30 0 -30 4 0 5 -15 1 -32 -4 -18 -4 -48 0 -65 3 -19 2 -33 -3 -33 -5
0 -6 -5 -3 -10 9 -14 10 -103 2 -116 -3 -5 -2 -16 3 -24 4 -7 4 -24 0 -36 -6
-14 -5 -26 0 -29 5 -3 5 -18 0 -35 -5 -17 -5 -30 0 -30 5 0 5 -13 0 -30 -5
-16 -5 -30 -1 -30 4 0 5 -19 1 -42 -3 -24 -3 -58 1 -75 3 -18 3 -33 -2 -33 -4
0 -4 -13 1 -30 5 -17 5 -32 0 -35 -5 -3 -6 -15 0 -29 4 -12 4 -29 0 -36 -5 -8
-5 -21 0 -30 5 -9 5 -22 0 -29 -4 -8 -4 -26 0 -41 4 -15 4 -33 -1 -41 -4 -8
-4 -21 1 -29 4 -7 4 -24 0 -36 -6 -14 -5 -26 0 -29 5 -3 5 -18 0 -35 -5 -17
-5 -30 0 -30 5 0 5 -13 0 -30 -5 -16 -5 -30 0 -30 9 0 1 -40 -12 -56 -6 -8
-21 -9 -43 -4 -19 4 -35 4 -35 0 0 -4 -16 -4 -35 0 -19 4 -37 4 -40 0 -3 -4
-21 -4 -40 0 -19 4 -37 4 -40 0 -3 -5 -18 -5 -33 -1 -15 4 -36 6 -47 5 -11 -1
-32 -3 -47 -3 -16 -1 -40 -1 -55 -2 -16 0 -35 0 -43 0 -8 1 -26 1 -40 0 -14 0
-31 0 -37 0 -18 1 -40 1 -100 0 -28 -1 -56 1 -60 4 -5 3 -15 2 -22 -3 -8 -4
-27 -4 -42 0 -16 5 -31 5 -34 0 -3 -5 -18 -5 -34 0 -15 4 -34 4 -41 0 -7 -4
-24 -4 -39 0 -14 4 -35 4 -46 0 -11 -4 -27 -4 -35 0 -8 4 -24 4 -35 0 -11 -4
-29 -4 -40 0 -11 4 -29 4 -40 0 -11 -4 -32 -4 -47 1 -15 4 -30 4 -33 -1 -3 -4
-20 -4 -39 0 -19 4 -37 5 -40 2 -4 -3 -6 -509 -6 -1124 l0 -1118 2880 0 2880
0 0 1121 c0 892 -3 1120 -12 1116 -7 -2 -25 -1 -39 3 -15 5 -32 4 -39 0 -7 -4
-26 -4 -41 0 -16 5 -31 5 -34 0 -3 -5 -18 -5 -34 0 -15 4 -34 4 -41 0 -7 -4
-24 -4 -39 0 -14 4 -35 4 -46 0 -11 -4 -27 -4 -35 0 -8 4 -24 4 -35 0 -11 -4
-29 -4 -40 0 -11 4 -29 4 -40 0 -11 -4 -32 -4 -47 1 -15 4 -30 4 -33 -1 -3 -4
-20 -4 -39 0 -19 4 -39 4 -46 0 -7 -4 -27 -4 -46 0 -19 4 -36 4 -39 0 -3 -5
-18 -5 -33 -1 -15 5 -36 5 -47 1 -11 -4 -29 -4 -40 0 -11 4 -29 4 -41 0 -11
-5 -27 -4 -34 0 -7 5 -23 5 -34 0 -12 -4 -30 -4 -41 0 -11 4 -29 4 -41 0 -11
-5 -26 -5 -33 0 -7 4 -28 4 -47 0 -19 -4 -36 -4 -39 0 -3 4 -20 4 -39 0 -19
-4 -38 -5 -41 -1 -4 3 -14 6 -23 6 -14 0 -17 11 -17 63 0 34 -3 62 -6 62 -4 0
-3 15 1 34 4 19 4 40 -1 47 -4 7 -4 20 1 28 4 8 4 25 0 37 -5 12 -7 24 -4 27
7 7 9 196 1 203 -3 3 -2 16 3 28 4 12 4 29 -1 38 -5 10 -5 19 0 22 4 3 5 24 1
46 -4 22 -5 40 -1 40 3 0 6 32 6 70 0 39 -3 70 -7 70 -4 0 -3 13 2 30 5 18 5
32 -1 36 -5 3 -6 10 -3 16 8 12 8 123 1 135 -3 5 -2 15 3 22 4 8 4 27 0 42 -5
16 -6 29 -2 29 4 0 7 29 7 65 0 36 -3 65 -7 65 -4 0 -3 13 2 28 4 16 4 35 -1
43 -4 8 -4 21 1 29 4 7 4 24 0 36 -6 14 -5 26 0 29 5 3 5 18 0 35 -5 17 -6 30
-2 30 4 0 7 16 7 35 0 19 -3 35 -7 35 -4 0 -3 13 2 30 5 17 5 32 0 35 -5 3 -6
15 -1 28 5 12 5 32 0 44 -4 12 -4 25 1 28 5 3 5 18 0 35 -5 17 -6 30 -2 30 4
0 7 16 7 35 0 19 -3 35 -7 35 -4 0 -5 6 -2 14 8 21 10 106 2 106 -4 0 -3 13 2
30 5 16 5 32 0 35 -4 3 -4 21 0 40 4 19 4 35 0 35 -5 0 -5 13 0 29 4 15 5 33
1 40 -4 6 -5 34 -1 61 3 27 3 55 -1 63 -4 7 -4 19 1 26 4 8 4 27 0 42 -5 16
-6 29 -2 29 4 0 7 29 7 65 0 36 -3 65 -7 65 -4 0 -3 13 2 28 4 16 4 35 -1 43
-4 8 -4 21 1 29 4 7 4 24 0 36 -6 14 -5 26 0 29 5 3 5 18 0 35 -5 17 -6 30 -2
30 4 0 7 16 7 35 0 19 -3 35 -7 35 -4 0 -3 13 2 30 5 17 5 32 0 35 -5 3 -6 15
-1 28 5 12 5 32 0 44 -4 12 -4 25 1 28 5 3 5 18 0 35 -5 17 -6 30 -2 30 4 0 7
16 7 35 0 19 -3 35 -7 35 -4 0 -5 6 -2 14 8 21 10 106 2 106 -4 0 -3 13 2 30
5 16 5 32 0 35 -4 3 -4 21 0 40 4 19 4 35 0 35 -5 0 -5 13 0 29 4 15 5 33 1
40 -4 6 -4 36 -1 67 3 30 3 57 -2 60 -4 3 -4 15 1 27 5 12 5 31 1 42 -4 11 -4
29 0 41 5 11 4 27 0 35 -5 8 -5 21 0 29 4 7 4 24 0 36 -6 15 -5 26 1 30 10 6
77 8 104 4 6 -1 60 -1 120 0 61 1 119 1 130 0 11 -1 26 -1 33 -1 30 2 39 2 67
2 17 -1 38 -1 48 -1 9 0 25 0 35 0 9 0 28 0 42 0 14 0 42 -1 63 -3 21 -1 43 1
49 4 6 4 21 4 33 -1 12 -5 27 -5 34 0 7 4 28 4 47 0 19 -4 34 -4 34 0 0 4 16
4 34 0 19 -4 38 -5 41 -2 7 7 123 5 135 -3 5 -3 11 -1 14 4 3 5 21 5 41 1 19
-4 35 -4 35 0 0 4 17 5 38 1 20 -3 52 -5 70 -3 l32 3 0 1120 0 1119 -2880 0
-2880 0 0 -1119z"/>
</g>
</svg>
